<svg width="954" height="448" viewBox="0 0 954 448" fill="none" xmlns="http://www.w3.org/2000/svg">
<rect x="441" y="183" width="171" height="168" fill="#D9D9D9"/>
<path d="M527.061 327.939C526.475 327.354 525.525 327.354 524.939 327.939L515.393 337.485C514.808 338.071 514.808 339.021 515.393 339.607C515.979 340.192 516.929 340.192 517.515 339.607L526 331.121L534.485 339.607C535.071 340.192 536.021 340.192 536.607 339.607C537.192 339.021 537.192 338.071 536.607 337.485L527.061 327.939ZM527.5 382L527.5 329L524.5 329L524.5 382L527.5 382Z" fill="black"/>
<path d="M469.042 421.222C467.292 421.203 466.037 420.758 465.276 419.886C464.516 419.015 464.142 417.914 464.157 416.584C464.161 416.211 464.188 415.849 464.239 415.5C464.313 415.127 464.387 414.755 464.461 414.382L466.044 407.154L463.734 407.129L464.473 403.602L467.03 403.419L468.549 398.886L472.574 398.929L471.65 403.469L475.604 403.512L474.829 407.249L470.769 407.205L469.183 414.643C469.158 414.853 469.132 415.051 469.107 415.238C469.105 415.424 469.103 415.611 469.101 415.798C469.089 416.917 469.677 417.484 470.867 417.497C471.124 417.5 471.369 417.467 471.603 417.4C471.838 417.309 472.072 417.218 472.306 417.127L473.11 420.496C472.665 420.655 472.091 420.812 471.39 420.968C470.711 421.147 469.928 421.232 469.042 421.222ZM480.428 421.346C478.912 421.329 477.716 420.768 476.841 419.662C475.99 418.556 475.576 416.976 475.598 414.923C475.616 413.266 475.889 411.729 476.418 410.312C476.947 408.871 477.649 407.618 478.524 406.554C479.422 405.491 480.423 404.661 481.526 404.067C482.652 403.472 483.811 403.181 485.001 403.194C485.794 403.203 486.538 403.421 487.234 403.849C487.929 404.253 488.437 404.807 488.756 405.51L488.826 405.511L489.616 403.664L493.43 403.706L489.777 421.027L485.893 420.985L485.987 418.711L485.882 418.71C485.08 419.518 484.198 420.162 483.236 420.641C482.274 421.121 481.338 421.356 480.428 421.346ZM482.571 417.449C483.154 417.455 483.774 417.287 484.431 416.944C485.112 416.578 485.738 415.908 486.308 414.934L487.6 408.788C487.326 408.201 486.969 407.778 486.529 407.516C486.112 407.255 485.705 407.122 485.308 407.118C484.515 407.109 483.753 407.428 483.023 408.073C482.316 408.695 481.735 409.553 481.28 410.644C480.824 411.736 480.589 412.982 480.574 414.382C480.563 415.432 480.729 416.204 481.074 416.697C481.442 417.191 481.941 417.442 482.571 417.449ZM492.984 427.502L498.037 403.756L501.922 403.798L501.935 405.793L502.04 405.794C502.841 405.08 503.699 404.505 504.614 404.072C505.552 403.639 506.464 403.427 507.351 403.437C508.891 403.453 510.086 404.015 510.938 405.121C511.789 406.227 512.204 407.806 512.181 409.859C512.163 411.516 511.89 413.065 511.361 414.506C510.832 415.924 510.13 417.164 509.255 418.228C508.381 419.292 507.38 420.121 506.253 420.716C505.15 421.311 504.004 421.601 502.814 421.589C502.09 421.581 501.416 421.398 500.789 421.042C500.187 420.662 499.691 420.143 499.301 419.485L499.231 419.485L498.704 422.874L497.779 427.554L492.984 427.502ZM502.506 417.665C503.323 417.674 504.084 417.367 504.791 416.745C505.498 416.099 506.079 415.23 506.535 414.138C506.99 413.047 507.225 411.801 507.24 410.401C507.252 409.351 507.073 408.579 506.705 408.085C506.337 407.591 505.85 407.341 505.243 407.334C504.707 407.328 504.098 407.485 503.418 407.804C502.762 408.101 502.172 408.654 501.65 409.465L500.249 416.03C500.499 416.593 500.822 417.005 501.215 417.266C501.633 417.527 502.063 417.66 502.506 417.665ZM520.9 421.365L524.588 404.044L528.472 404.086L528.377 406.395L528.517 406.396C529.365 405.659 530.271 405.027 531.233 404.501C532.196 403.975 533.225 403.717 534.322 403.729C535.768 403.745 536.814 404.141 537.459 404.918C538.104 405.672 538.419 406.772 538.403 408.219C538.399 408.615 538.371 409.023 538.32 409.443C538.269 409.839 538.194 410.258 538.096 410.701L535.809 421.526L531.014 421.474L533.19 411.242C533.264 410.893 533.326 410.59 533.375 410.334C533.448 410.078 533.485 409.834 533.488 409.601C533.501 408.411 532.912 407.809 531.722 407.796C531.186 407.79 530.624 407.971 530.036 408.338C529.473 408.682 528.813 409.235 528.058 409.997L525.694 421.417L520.9 421.365ZM547.585 422.074C545.555 422.052 543.929 421.381 542.707 420.061C541.507 418.741 540.92 417.008 540.943 414.862C540.961 413.182 541.258 411.668 541.832 410.321C542.407 408.974 543.166 407.815 544.11 406.846C545.054 405.876 546.1 405.14 547.249 404.639C548.421 404.139 549.602 403.895 550.792 403.908C552.146 403.923 553.32 404.239 554.317 404.856C555.314 405.45 556.087 406.287 556.635 407.366C557.184 408.422 557.45 409.674 557.434 411.12C557.416 412.8 557.12 414.314 556.545 415.661C555.97 417.008 555.211 418.167 554.267 419.136C553.323 420.106 552.265 420.842 551.093 421.342C549.944 421.843 548.775 422.087 547.585 422.074ZM548.152 418.23C548.945 418.239 549.672 417.943 550.332 417.344C550.992 416.721 551.526 415.875 551.934 414.806C552.366 413.737 552.589 412.526 552.604 411.173C552.615 410.1 552.414 409.269 552.001 408.681C551.61 408.07 551.007 407.76 550.191 407.752C549.421 407.743 548.694 408.05 548.01 408.673C547.351 409.273 546.816 410.107 546.408 411.176C546 412.245 545.788 413.456 545.774 414.809C545.762 415.859 545.952 416.689 546.342 417.3C546.755 417.912 547.358 418.221 548.152 418.23ZM561.394 421.804L560.742 404.436L565.467 404.487L565.411 412.887C565.379 413.727 565.334 414.578 565.278 415.441C565.246 416.28 565.202 417.132 565.146 417.994L565.286 417.996C565.622 417.136 565.946 416.276 566.259 415.416C566.571 414.556 566.919 413.72 567.301 412.907L570.962 404.547L575.127 404.592L575.315 412.994C575.33 413.835 575.32 414.686 575.288 415.549C575.279 416.389 575.269 417.241 575.26 418.104L575.4 418.106C575.736 417.246 576.049 416.398 576.338 415.561C576.627 414.7 576.94 413.852 577.275 413.016L580.621 404.651L585.066 404.7L577.458 421.978L571.823 421.917L571.762 414.636C571.795 413.82 571.815 413.003 571.824 412.186C571.833 411.347 571.854 410.472 571.887 409.562L571.747 409.56C571.411 410.467 571.098 411.339 570.809 412.175C570.52 412.989 570.208 413.802 569.872 414.615L566.819 421.863L561.394 421.804ZM588.425 414.187L590.868 398.672L595.663 398.724L594.6 403.123L591.575 414.221L588.425 414.187ZM588.37 422.517C587.623 422.508 587.019 422.269 586.557 421.797C586.119 421.302 585.904 420.67 585.913 419.9C585.919 419.316 586.065 418.758 586.351 418.224C586.66 417.691 587.073 417.252 587.59 416.908C588.107 416.563 588.704 416.395 589.381 416.402C590.128 416.41 590.72 416.673 591.157 417.191C591.619 417.686 591.845 418.307 591.837 419.054C591.831 419.637 591.673 420.196 591.364 420.729C591.078 421.263 590.677 421.702 590.16 422.046C589.643 422.367 589.046 422.524 588.37 422.517Z" fill="black"/>
<rect x="508" y="248" width="37" height="37" fill="#FF0000"/>
<rect x="253" y="183" width="171" height="168" fill="#D9D9D9"/>
<rect x="320" y="248" width="37" height="37" fill="#FF9900"/>
<rect x="441" width="171" height="168" fill="#D9D9D9"/>
<rect x="508" y="65" width="37" height="37" fill="#9E14DF"/>
<rect x="253" width="171" height="168" fill="#D9D9D9"/>
<rect x="320" y="65" width="37" height="37" fill="#00E717"/>
<path d="M653.105 168.42C651.355 168.42 650.095 167.988 649.325 167.125C648.555 166.262 648.17 165.165 648.17 163.835C648.17 163.462 648.193 163.1 648.24 162.75C648.31 162.377 648.38 162.003 648.45 161.63L649.955 154.385H647.645L648.345 150.85L650.9 150.64L652.37 146.09H656.395L655.52 150.64H659.475L658.74 154.385H654.68L653.175 161.84C653.152 162.05 653.128 162.248 653.105 162.435C653.105 162.622 653.105 162.808 653.105 162.995C653.105 164.115 653.7 164.675 654.89 164.675C655.147 164.675 655.392 164.64 655.625 164.57C655.858 164.477 656.092 164.383 656.325 164.29L657.165 167.65C656.722 167.813 656.15 167.977 655.45 168.14C654.773 168.327 653.992 168.42 653.105 168.42ZM659.442 168L662.942 150.64H666.827L666.617 154H666.757C667.433 152.903 668.227 152.005 669.137 151.305C670.047 150.582 671.003 150.22 672.007 150.22C672.45 150.22 672.812 150.255 673.092 150.325C673.395 150.372 673.64 150.453 673.827 150.57L672.252 154.7C672.018 154.583 671.738 154.513 671.412 154.49C671.108 154.443 670.817 154.42 670.537 154.42C669.767 154.42 669.02 154.7 668.297 155.26C667.573 155.82 666.873 156.718 666.197 157.955L664.237 168H659.442ZM678.127 168.42C676.611 168.42 675.409 167.872 674.522 166.775C673.659 165.678 673.227 164.103 673.227 162.05C673.227 160.393 673.484 158.853 673.997 157.43C674.511 155.983 675.199 154.723 676.062 153.65C676.949 152.577 677.941 151.737 679.037 151.13C680.157 150.523 681.312 150.22 682.502 150.22C683.296 150.22 684.042 150.43 684.742 150.85C685.442 151.247 685.956 151.795 686.282 152.495H686.352L687.122 150.64H690.937L687.472 168H683.587L683.657 165.725H683.552C682.759 166.542 681.884 167.195 680.927 167.685C679.971 168.175 679.037 168.42 678.127 168.42ZM680.227 164.5C680.811 164.5 681.429 164.325 682.082 163.975C682.759 163.602 683.377 162.925 683.937 161.945L685.162 155.785C684.882 155.202 684.521 154.782 684.077 154.525C683.657 154.268 683.249 154.14 682.852 154.14C682.059 154.14 681.301 154.467 680.577 155.12C679.877 155.75 679.306 156.613 678.862 157.71C678.419 158.807 678.197 160.055 678.197 161.455C678.197 162.505 678.372 163.275 678.722 163.765C679.096 164.255 679.597 164.5 680.227 164.5ZM690.749 174.44L695.544 150.64H699.429L699.464 152.635H699.569C700.362 151.912 701.214 151.328 702.124 150.885C703.057 150.442 703.967 150.22 704.854 150.22C706.394 150.22 707.596 150.768 708.459 151.865C709.322 152.962 709.754 154.537 709.754 156.59C709.754 158.247 709.497 159.798 708.984 161.245C708.471 162.668 707.782 163.917 706.919 164.99C706.056 166.063 705.064 166.903 703.944 167.51C702.847 168.117 701.704 168.42 700.514 168.42C699.791 168.42 699.114 168.245 698.484 167.895C697.877 167.522 697.376 167.008 696.979 166.355H696.909L696.419 169.75L695.544 174.44H690.749ZM700.164 164.5C700.981 164.5 701.739 164.185 702.439 163.555C703.139 162.902 703.711 162.027 704.154 160.93C704.597 159.833 704.819 158.585 704.819 157.185C704.819 156.135 704.632 155.365 704.259 154.875C703.886 154.385 703.396 154.14 702.789 154.14C702.252 154.14 701.646 154.303 700.969 154.63C700.316 154.933 699.732 155.493 699.219 156.31L697.889 162.89C698.146 163.45 698.472 163.858 698.869 164.115C699.289 164.372 699.721 164.5 700.164 164.5ZM716.95 168.42C715.876 168.42 714.745 168.128 713.555 167.545C712.388 166.962 711.443 166.133 710.72 165.06L713.485 162.75C714.698 164.197 715.946 164.92 717.23 164.92C717.906 164.92 718.478 164.768 718.945 164.465C719.435 164.138 719.68 163.742 719.68 163.275C719.68 162.762 719.423 162.342 718.91 162.015C718.396 161.688 717.626 161.233 716.6 160.65C715.69 160.137 714.885 159.483 714.185 158.69C713.508 157.897 713.17 156.963 713.17 155.89C713.17 154.793 713.461 153.825 714.045 152.985C714.651 152.122 715.456 151.445 716.46 150.955C717.486 150.465 718.618 150.22 719.855 150.22C721.045 150.22 722.118 150.477 723.075 150.99C724.031 151.503 724.86 152.133 725.56 152.88L722.97 155.33C722.526 154.91 722.036 154.548 721.5 154.245C720.986 153.942 720.426 153.79 719.82 153.79C719.166 153.79 718.641 153.953 718.245 154.28C717.848 154.583 717.65 154.968 717.65 155.435C717.65 155.972 717.953 156.415 718.56 156.765C719.19 157.092 719.843 157.453 720.52 157.85C721.546 158.387 722.41 159.028 723.11 159.775C723.81 160.498 724.16 161.478 724.16 162.715C724.16 163.835 723.845 164.827 723.215 165.69C722.608 166.553 721.756 167.23 720.66 167.72C719.586 168.187 718.35 168.42 716.95 168.42ZM725.479 174.545L724.989 171.92C726.319 171.523 727.357 170.963 728.104 170.24C728.85 169.54 729.317 168.793 729.504 168C728.734 167.977 728.092 167.743 727.579 167.3C727.089 166.857 726.844 166.262 726.844 165.515C726.844 164.675 727.135 163.928 727.719 163.275C728.302 162.622 729.095 162.295 730.099 162.295C731.032 162.295 731.744 162.598 732.234 163.205C732.747 163.788 733.004 164.617 733.004 165.69C733.004 167.883 732.327 169.785 730.974 171.395C729.644 173.005 727.812 174.055 725.479 174.545ZM749.311 168.42C747.794 168.42 746.593 167.872 745.706 166.775C744.843 165.678 744.411 164.103 744.411 162.05C744.411 160.393 744.668 158.853 745.181 157.43C745.694 155.983 746.383 154.723 747.246 153.65C748.133 152.577 749.124 151.737 750.221 151.13C751.341 150.523 752.496 150.22 753.686 150.22C754.479 150.22 755.179 150.418 755.786 150.815C756.416 151.188 756.894 151.69 757.221 152.32H757.326L757.746 149.03L758.796 143.465H763.591L758.656 168H754.771L754.841 165.725H754.736C753.943 166.542 753.068 167.195 752.111 167.685C751.154 168.175 750.221 168.42 749.311 168.42ZM751.411 164.5C751.994 164.5 752.613 164.325 753.266 163.975C753.919 163.602 754.538 162.925 755.121 161.945L756.346 155.785C756.066 155.202 755.704 154.782 755.261 154.525C754.841 154.268 754.433 154.14 754.036 154.14C753.243 154.14 752.484 154.467 751.761 155.12C751.061 155.75 750.489 156.613 750.046 157.71C749.603 158.807 749.381 160.055 749.381 161.455C749.381 162.505 749.556 163.275 749.906 163.765C750.279 164.255 750.781 164.5 751.411 164.5ZM770.302 168.42C768.272 168.42 766.639 167.767 765.402 166.46C764.189 165.153 763.582 163.427 763.582 161.28C763.582 159.6 763.862 158.083 764.422 156.73C764.982 155.377 765.729 154.21 766.662 153.23C767.596 152.25 768.634 151.503 769.777 150.99C770.944 150.477 772.122 150.22 773.312 150.22C774.666 150.22 775.844 150.523 776.847 151.13C777.851 151.713 778.632 152.542 779.192 153.615C779.752 154.665 780.032 155.913 780.032 157.36C780.032 159.04 779.752 160.557 779.192 161.91C778.632 163.263 777.886 164.43 776.952 165.41C776.019 166.39 774.969 167.137 773.802 167.65C772.659 168.163 771.492 168.42 770.302 168.42ZM770.827 164.57C771.621 164.57 772.344 164.267 772.997 163.66C773.651 163.03 774.176 162.178 774.572 161.105C774.992 160.032 775.202 158.818 775.202 157.465C775.202 156.392 774.992 155.563 774.572 154.98C774.176 154.373 773.569 154.07 772.752 154.07C771.982 154.07 771.259 154.385 770.582 155.015C769.929 155.622 769.404 156.462 769.007 157.535C768.611 158.608 768.412 159.822 768.412 161.175C768.412 162.225 768.611 163.053 769.007 163.66C769.427 164.267 770.034 164.57 770.827 164.57ZM788.891 168L792.391 150.64H796.276L796.206 152.95H796.346C797.186 152.203 798.085 151.562 799.041 151.025C799.998 150.488 801.025 150.22 802.121 150.22C803.568 150.22 804.618 150.605 805.271 151.375C805.925 152.122 806.251 153.218 806.251 154.665C806.251 155.062 806.228 155.47 806.181 155.89C806.135 156.287 806.065 156.707 805.971 157.15L803.801 168H799.006L801.071 157.745C801.141 157.395 801.2 157.092 801.246 156.835C801.316 156.578 801.351 156.333 801.351 156.1C801.351 154.91 800.756 154.315 799.566 154.315C799.03 154.315 798.47 154.502 797.886 154.875C797.326 155.225 796.673 155.785 795.926 156.555L793.686 168H788.891ZM815.583 168.42C813.553 168.42 811.92 167.767 810.683 166.46C809.47 165.153 808.863 163.427 808.863 161.28C808.863 159.6 809.143 158.083 809.703 156.73C810.263 155.377 811.01 154.21 811.943 153.23C812.876 152.25 813.915 151.503 815.058 150.99C816.225 150.477 817.403 150.22 818.593 150.22C819.946 150.22 821.125 150.523 822.128 151.13C823.131 151.713 823.913 152.542 824.473 153.615C825.033 154.665 825.313 155.913 825.313 157.36C825.313 159.04 825.033 160.557 824.473 161.91C823.913 163.263 823.166 164.43 822.233 165.41C821.3 166.39 820.25 167.137 819.083 167.65C817.94 168.163 816.773 168.42 815.583 168.42ZM816.108 164.57C816.901 164.57 817.625 164.267 818.278 163.66C818.931 163.03 819.456 162.178 819.853 161.105C820.273 160.032 820.483 158.818 820.483 157.465C820.483 156.392 820.273 155.563 819.853 154.98C819.456 154.373 818.85 154.07 818.033 154.07C817.263 154.07 816.54 154.385 815.863 155.015C815.21 155.622 814.685 156.462 814.288 157.535C813.891 158.608 813.693 159.822 813.693 161.175C813.693 162.225 813.891 163.053 814.288 163.66C814.708 164.267 815.315 164.57 816.108 164.57ZM833.68 168.42C831.93 168.42 830.67 167.988 829.9 167.125C829.13 166.262 828.745 165.165 828.745 163.835C828.745 163.462 828.768 163.1 828.815 162.75C828.885 162.377 828.955 162.003 829.025 161.63L830.53 154.385H828.22L828.92 150.85L831.475 150.64L832.945 146.09H836.97L836.095 150.64H840.05L839.315 154.385H835.255L833.75 161.84C833.727 162.05 833.703 162.248 833.68 162.435C833.68 162.622 833.68 162.808 833.68 162.995C833.68 164.115 834.275 164.675 835.465 164.675C835.722 164.675 835.967 164.64 836.2 164.57C836.433 164.477 836.667 164.383 836.9 164.29L837.74 167.65C837.297 167.813 836.725 167.977 836.025 168.14C835.348 168.327 834.567 168.42 833.68 168.42ZM853.738 168.42C851.988 168.42 850.728 167.988 849.958 167.125C849.188 166.262 848.803 165.165 848.803 163.835C848.803 163.462 848.827 163.1 848.873 162.75C848.943 162.377 849.013 162.003 849.083 161.63L850.588 154.385H848.278L848.978 150.85L851.533 150.64L853.003 146.09H857.028L856.153 150.64H860.108L859.373 154.385H855.313L853.808 161.84C853.785 162.05 853.762 162.248 853.738 162.435C853.738 162.622 853.738 162.808 853.738 162.995C853.738 164.115 854.333 164.675 855.523 164.675C855.78 164.675 856.025 164.64 856.258 164.57C856.492 164.477 856.725 164.383 856.958 164.29L857.798 167.65C857.355 167.813 856.783 167.977 856.083 168.14C855.407 168.327 854.625 168.42 853.738 168.42ZM866.911 168.42C864.881 168.42 863.247 167.767 862.011 166.46C860.797 165.153 860.191 163.427 860.191 161.28C860.191 159.6 860.471 158.083 861.031 156.73C861.591 155.377 862.337 154.21 863.271 153.23C864.204 152.25 865.242 151.503 866.386 150.99C867.552 150.477 868.731 150.22 869.921 150.22C871.274 150.22 872.452 150.523 873.456 151.13C874.459 151.713 875.241 152.542 875.801 153.615C876.361 154.665 876.641 155.913 876.641 157.36C876.641 159.04 876.361 160.557 875.801 161.91C875.241 163.263 874.494 164.43 873.561 165.41C872.627 166.39 871.577 167.137 870.411 167.65C869.267 168.163 868.101 168.42 866.911 168.42ZM867.436 164.57C868.229 164.57 868.952 164.267 869.606 163.66C870.259 163.03 870.784 162.178 871.181 161.105C871.601 160.032 871.811 158.818 871.811 157.465C871.811 156.392 871.601 155.563 871.181 154.98C870.784 154.373 870.177 154.07 869.361 154.07C868.591 154.07 867.867 154.385 867.191 155.015C866.537 155.622 866.012 156.462 865.616 157.535C865.219 158.608 865.021 159.822 865.021 161.175C865.021 162.225 865.219 163.053 865.616 163.66C866.036 164.267 866.642 164.57 867.436 164.57ZM883.363 168.42C881.939 168.42 880.901 168.035 880.248 167.265C879.594 166.495 879.268 165.387 879.268 163.94C879.268 163.543 879.291 163.147 879.338 162.75C879.384 162.353 879.454 161.933 879.548 161.49L881.718 150.64H886.478L884.448 160.895C884.354 161.245 884.284 161.548 884.238 161.805C884.191 162.062 884.168 162.307 884.168 162.54C884.168 163.73 884.751 164.325 885.918 164.325C886.898 164.325 888.053 163.578 889.383 162.085L891.623 150.64H896.418L892.988 168H889.103L889.173 165.655H889.033C888.239 166.378 887.353 167.02 886.373 167.58C885.416 168.14 884.413 168.42 883.363 168.42ZM904.88 168.42C903.597 168.42 902.442 168.14 901.415 167.58C900.388 167.02 899.572 166.203 898.965 165.13C898.382 164.057 898.09 162.773 898.09 161.28C898.09 159.763 898.347 158.34 898.86 157.01C899.397 155.68 900.132 154.513 901.065 153.51C901.998 152.483 903.083 151.678 904.32 151.095C905.557 150.512 906.887 150.22 908.31 150.22C909.407 150.22 910.34 150.442 911.11 150.885C911.903 151.328 912.522 151.818 912.965 152.355L910.305 155.19C909.955 154.817 909.605 154.537 909.255 154.35C908.905 154.163 908.485 154.07 907.995 154.07C907.085 154.07 906.245 154.397 905.475 155.05C904.728 155.68 904.122 156.532 903.655 157.605C903.212 158.678 902.99 159.868 902.99 161.175C902.99 162.225 903.235 163.053 903.725 163.66C904.215 164.267 904.95 164.57 905.93 164.57C906.537 164.57 907.05 164.453 907.47 164.22C907.913 163.987 908.322 163.73 908.695 163.45L910.69 166.39C910.037 166.88 909.243 167.347 908.31 167.79C907.4 168.21 906.257 168.42 904.88 168.42ZM913.183 168L918.118 143.465H922.913L921.583 149.87L920.813 152.67H920.953C921.723 151.993 922.563 151.422 923.473 150.955C924.406 150.465 925.386 150.22 926.413 150.22C927.859 150.22 928.909 150.605 929.563 151.375C930.216 152.122 930.543 153.218 930.543 154.665C930.543 155.062 930.519 155.47 930.473 155.89C930.449 156.287 930.379 156.707 930.263 157.15L928.093 168H923.298L925.363 157.745C925.433 157.395 925.491 157.092 925.538 156.835C925.608 156.578 925.643 156.333 925.643 156.1C925.643 154.91 925.048 154.315 923.858 154.315C923.321 154.315 922.761 154.502 922.178 154.875C921.618 155.225 920.964 155.785 920.218 156.555L917.978 168H913.183Z" fill="black" fill-opacity="0.42"/>
<path d="M563.534 104.574C562.747 104.831 562.317 105.678 562.574 106.466L566.765 119.299C567.022 120.086 567.869 120.516 568.656 120.259C569.444 120.002 569.873 119.155 569.616 118.368L565.892 106.96L577.299 103.235C578.086 102.978 578.516 102.131 578.259 101.344C578.002 100.556 577.155 100.127 576.368 100.384L563.534 104.574ZM629.679 137.662L564.679 104.662L563.321 107.337L628.321 140.338L629.679 137.662Z" fill="black" fill-opacity="0.34"/>
<path d="M6.95 189.42C5.87667 189.42 4.745 189.128 3.555 188.545C2.38833 187.962 1.44333 187.133 0.72 186.06L3.485 183.75C4.69833 185.197 5.94667 185.92 7.23 185.92C7.90667 185.92 8.47833 185.768 8.945 185.465C9.435 185.138 9.68 184.742 9.68 184.275C9.68 183.762 9.42333 183.342 8.91 183.015C8.39667 182.688 7.62667 182.233 6.6 181.65C5.69 181.137 4.885 180.483 4.185 179.69C3.50833 178.897 3.17 177.963 3.17 176.89C3.17 175.793 3.46167 174.825 4.045 173.985C4.65167 173.122 5.45667 172.445 6.46 171.955C7.48667 171.465 8.61833 171.22 9.855 171.22C11.045 171.22 12.1183 171.477 13.075 171.99C14.0317 172.503 14.86 173.133 15.56 173.88L12.97 176.33C12.5267 175.91 12.0367 175.548 11.5 175.245C10.9867 174.942 10.4267 174.79 9.82 174.79C9.16667 174.79 8.64167 174.953 8.245 175.28C7.84833 175.583 7.65 175.968 7.65 176.435C7.65 176.972 7.95333 177.415 8.56 177.765C9.19 178.092 9.84333 178.453 10.52 178.85C11.5467 179.387 12.41 180.028 13.11 180.775C13.81 181.498 14.16 182.478 14.16 183.715C14.16 184.835 13.845 185.827 13.215 186.69C12.6083 187.553 11.7567 188.23 10.66 188.72C9.58667 189.187 8.35 189.42 6.95 189.42ZM23.039 189.42C21.289 189.42 20.029 188.988 19.259 188.125C18.489 187.262 18.104 186.165 18.104 184.835C18.104 184.462 18.1273 184.1 18.174 183.75C18.244 183.377 18.314 183.003 18.384 182.63L19.889 175.385H17.579L18.279 171.85L20.834 171.64L22.304 167.09H26.329L25.454 171.64H29.409L28.674 175.385H24.614L23.109 182.84C23.0857 183.05 23.0623 183.248 23.039 183.435C23.039 183.622 23.039 183.808 23.039 183.995C23.039 185.115 23.634 185.675 24.824 185.675C25.0807 185.675 25.3257 185.64 25.559 185.57C25.7923 185.477 26.0257 185.383 26.259 185.29L27.099 188.65C26.6557 188.813 26.084 188.977 25.384 189.14C24.7073 189.327 23.9257 189.42 23.039 189.42ZM34.4262 189.42C32.9095 189.42 31.7079 188.872 30.8212 187.775C29.9579 186.678 29.5262 185.103 29.5262 183.05C29.5262 181.393 29.7829 179.853 30.2962 178.43C30.8095 176.983 31.4979 175.723 32.3612 174.65C33.2479 173.577 34.2395 172.737 35.3362 172.13C36.4562 171.523 37.6112 171.22 38.8012 171.22C39.5945 171.22 40.3412 171.43 41.0412 171.85C41.7412 172.247 42.2545 172.795 42.5812 173.495H42.6512L43.4212 171.64H47.2362L43.7712 189H39.8862L39.9562 186.725H39.8512C39.0579 187.542 38.1829 188.195 37.2262 188.685C36.2695 189.175 35.3362 189.42 34.4262 189.42ZM36.5262 185.5C37.1095 185.5 37.7279 185.325 38.3812 184.975C39.0579 184.602 39.6762 183.925 40.2362 182.945L41.4612 176.785C41.1812 176.202 40.8195 175.782 40.3762 175.525C39.9562 175.268 39.5479 175.14 39.1512 175.14C38.3579 175.14 37.5995 175.467 36.8762 176.12C36.1762 176.75 35.6045 177.613 35.1612 178.71C34.7179 179.807 34.4962 181.055 34.4962 182.455C34.4962 183.505 34.6712 184.275 35.0212 184.765C35.3945 185.255 35.8962 185.5 36.5262 185.5ZM48.3427 189L51.8427 171.64H55.7277L55.5177 175H55.6577C56.3344 173.903 57.1277 173.005 58.0377 172.305C58.9477 171.582 59.9044 171.22 60.9077 171.22C61.3511 171.22 61.7127 171.255 61.9927 171.325C62.2961 171.372 62.5411 171.453 62.7277 171.57L61.1527 175.7C60.9194 175.583 60.6394 175.513 60.3127 175.49C60.0094 175.443 59.7177 175.42 59.4377 175.42C58.6677 175.42 57.9211 175.7 57.1977 176.26C56.4744 176.82 55.7744 177.718 55.0977 178.955L53.1377 189H48.3427ZM68.4904 189.42C66.7404 189.42 65.4804 188.988 64.7104 188.125C63.9404 187.262 63.5554 186.165 63.5554 184.835C63.5554 184.462 63.5787 184.1 63.6254 183.75C63.6954 183.377 63.7654 183.003 63.8354 182.63L65.3404 175.385H63.0304L63.7304 171.85L66.2854 171.64L67.7554 167.09H71.7804L70.9054 171.64H74.8604L74.1254 175.385H70.0654L68.5604 182.84C68.537 183.05 68.5137 183.248 68.4904 183.435C68.4904 183.622 68.4904 183.808 68.4904 183.995C68.4904 185.115 69.0854 185.675 70.2754 185.675C70.532 185.675 70.777 185.64 71.0104 185.57C71.2437 185.477 71.477 185.383 71.7104 185.29L72.5504 188.65C72.107 188.813 71.5354 188.977 70.8354 189.14C70.1587 189.327 69.377 189.42 68.4904 189.42ZM74.8269 189L78.3269 171.64H83.0869L79.6219 189H74.8269ZM81.5119 169.05C80.8586 169.05 80.2636 168.863 79.7269 168.49C79.1902 168.093 78.9219 167.51 78.9219 166.74C78.9219 165.97 79.2136 165.305 79.7969 164.745C80.3802 164.185 81.0802 163.905 81.8969 163.905C82.5736 163.905 83.1686 164.103 83.6819 164.5C84.2186 164.897 84.4869 165.468 84.4869 166.215C84.4869 167.032 84.1952 167.708 83.6119 168.245C83.0519 168.782 82.3519 169.05 81.5119 169.05ZM84.1896 189L87.6896 171.64H91.5746L91.5046 173.95H91.6446C92.4846 173.203 93.3829 172.562 94.3396 172.025C95.2963 171.488 96.3229 171.22 97.4196 171.22C98.8663 171.22 99.9163 171.605 100.57 172.375C101.223 173.122 101.55 174.218 101.55 175.665C101.55 176.062 101.526 176.47 101.48 176.89C101.433 177.287 101.363 177.707 101.27 178.15L99.0996 189H94.3046L96.3696 178.745C96.4396 178.395 96.4979 178.092 96.5446 177.835C96.6146 177.578 96.6496 177.333 96.6496 177.1C96.6496 175.91 96.0546 175.315 94.8646 175.315C94.3279 175.315 93.7679 175.502 93.1846 175.875C92.6246 176.225 91.9713 176.785 91.2246 177.555L88.9846 189H84.1896ZM109.341 196.105C108.314 196.105 107.229 195.895 106.086 195.475C104.966 195.055 103.904 194.448 102.901 193.655L105.001 190.47C105.654 190.983 106.354 191.415 107.101 191.765C107.848 192.115 108.629 192.29 109.446 192.29C110.543 192.29 111.441 191.998 112.141 191.415C112.864 190.855 113.378 190.05 113.681 189L114.591 185.92C113.821 186.713 112.981 187.332 112.071 187.775C111.161 188.218 110.228 188.44 109.271 188.44C107.801 188.44 106.588 187.95 105.631 186.97C104.674 185.967 104.196 184.438 104.196 182.385C104.196 180.822 104.441 179.363 104.931 178.01C105.421 176.657 106.086 175.478 106.926 174.475C107.789 173.448 108.758 172.655 109.831 172.095C110.928 171.512 112.071 171.22 113.261 171.22C114.054 171.22 114.789 171.43 115.466 171.85C116.143 172.247 116.644 172.795 116.971 173.495H117.076L117.811 171.64H121.696L118.301 188.72C117.788 191.24 116.761 193.095 115.221 194.285C113.681 195.498 111.721 196.105 109.341 196.105ZM111.126 184.555C111.709 184.555 112.328 184.392 112.981 184.065C113.634 183.738 114.241 183.143 114.801 182.28L115.886 176.785C115.583 176.202 115.221 175.782 114.801 175.525C114.404 175.268 114.008 175.14 113.611 175.14C112.818 175.14 112.083 175.432 111.406 176.015C110.729 176.598 110.181 177.392 109.761 178.395C109.364 179.375 109.166 180.495 109.166 181.755C109.166 182.688 109.341 183.388 109.691 183.855C110.064 184.322 110.543 184.555 111.126 184.555ZM137.229 189.42C135.946 189.42 134.791 189.14 133.764 188.58C132.738 188.02 131.921 187.203 131.314 186.13C130.731 185.057 130.439 183.773 130.439 182.28C130.439 180.763 130.696 179.34 131.209 178.01C131.746 176.68 132.481 175.513 133.414 174.51C134.348 173.483 135.433 172.678 136.669 172.095C137.906 171.512 139.236 171.22 140.659 171.22C141.756 171.22 142.689 171.442 143.459 171.885C144.253 172.328 144.871 172.818 145.314 173.355L142.654 176.19C142.304 175.817 141.954 175.537 141.604 175.35C141.254 175.163 140.834 175.07 140.344 175.07C139.434 175.07 138.594 175.397 137.824 176.05C137.078 176.68 136.471 177.532 136.004 178.605C135.561 179.678 135.339 180.868 135.339 182.175C135.339 183.225 135.584 184.053 136.074 184.66C136.564 185.267 137.299 185.57 138.279 185.57C138.886 185.57 139.399 185.453 139.819 185.22C140.263 184.987 140.671 184.73 141.044 184.45L143.039 187.39C142.386 187.88 141.593 188.347 140.659 188.79C139.749 189.21 138.606 189.42 137.229 189.42ZM152.299 189.42C150.269 189.42 148.636 188.767 147.399 187.46C146.186 186.153 145.579 184.427 145.579 182.28C145.579 180.6 145.859 179.083 146.419 177.73C146.979 176.377 147.726 175.21 148.659 174.23C149.593 173.25 150.631 172.503 151.774 171.99C152.941 171.477 154.119 171.22 155.309 171.22C156.663 171.22 157.841 171.523 158.844 172.13C159.848 172.713 160.629 173.542 161.189 174.615C161.749 175.665 162.029 176.913 162.029 178.36C162.029 180.04 161.749 181.557 161.189 182.91C160.629 184.263 159.883 185.43 158.949 186.41C158.016 187.39 156.966 188.137 155.799 188.65C154.656 189.163 153.489 189.42 152.299 189.42ZM152.824 185.57C153.618 185.57 154.341 185.267 154.994 184.66C155.648 184.03 156.173 183.178 156.569 182.105C156.989 181.032 157.199 179.818 157.199 178.465C157.199 177.392 156.989 176.563 156.569 175.98C156.173 175.373 155.566 175.07 154.749 175.07C153.979 175.07 153.256 175.385 152.579 176.015C151.926 176.622 151.401 177.462 151.004 178.535C150.608 179.608 150.409 180.822 150.409 182.175C150.409 183.225 150.608 184.053 151.004 184.66C151.424 185.267 152.031 185.57 152.824 185.57ZM168.086 189.42C166.85 189.42 165.951 189.117 165.391 188.51C164.855 187.903 164.586 187.075 164.586 186.025C164.586 185.418 164.668 184.707 164.831 183.89L168.716 164.465H173.511L169.556 184.1C169.533 184.263 169.51 184.392 169.486 184.485C169.486 184.578 169.486 184.672 169.486 184.765C169.486 185.068 169.556 185.278 169.696 185.395C169.836 185.512 169.988 185.57 170.151 185.57C170.268 185.57 170.361 185.57 170.431 185.57C170.501 185.547 170.618 185.523 170.781 185.5L170.641 189.035C170.338 189.128 169.976 189.21 169.556 189.28C169.136 189.373 168.646 189.42 168.086 189.42ZM180.8 189.42C178.77 189.42 177.137 188.767 175.9 187.46C174.687 186.153 174.08 184.427 174.08 182.28C174.08 180.6 174.36 179.083 174.92 177.73C175.48 176.377 176.227 175.21 177.16 174.23C178.093 173.25 179.132 172.503 180.275 171.99C181.442 171.477 182.62 171.22 183.81 171.22C185.163 171.22 186.342 171.523 187.345 172.13C188.348 172.713 189.13 173.542 189.69 174.615C190.25 175.665 190.53 176.913 190.53 178.36C190.53 180.04 190.25 181.557 189.69 182.91C189.13 184.263 188.383 185.43 187.45 186.41C186.517 187.39 185.467 188.137 184.3 188.65C183.157 189.163 181.99 189.42 180.8 189.42ZM181.325 185.57C182.118 185.57 182.842 185.267 183.495 184.66C184.148 184.03 184.673 183.178 185.07 182.105C185.49 181.032 185.7 179.818 185.7 178.465C185.7 177.392 185.49 176.563 185.07 175.98C184.673 175.373 184.067 175.07 183.25 175.07C182.48 175.07 181.757 175.385 181.08 176.015C180.427 176.622 179.902 177.462 179.505 178.535C179.108 179.608 178.91 180.822 178.91 182.175C178.91 183.225 179.108 184.053 179.505 184.66C179.925 185.267 180.532 185.57 181.325 185.57ZM192.282 189L195.782 171.64H199.667L199.457 175H199.597C200.274 173.903 201.067 173.005 201.977 172.305C202.887 171.582 203.844 171.22 204.847 171.22C205.291 171.22 205.652 171.255 205.932 171.325C206.236 171.372 206.481 171.453 206.667 171.57L205.092 175.7C204.859 175.583 204.579 175.513 204.252 175.49C203.949 175.443 203.657 175.42 203.377 175.42C202.607 175.42 201.861 175.7 201.137 176.26C200.414 176.82 199.714 177.718 199.037 178.955L197.077 189H192.282Z" fill="black"/>
<path d="M237.29 102.632C237.639 101.881 237.313 100.989 236.562 100.64L224.318 94.9518C223.567 94.6027 222.675 94.9288 222.326 95.6802C221.977 96.4315 222.303 97.3235 223.054 97.6725L233.937 102.728L228.881 113.611C228.532 114.363 228.859 115.255 229.61 115.604C230.361 115.953 231.253 115.627 231.602 114.875L237.29 102.632ZM135.515 140.308L236.445 103.409L235.414 100.591L134.485 137.491L135.515 140.308Z" fill="black"/>
<path d="M378.637 259.373C378.291 260.125 378.62 261.016 379.373 261.363L391.635 267.008C392.388 267.355 393.279 267.026 393.625 266.273C393.972 265.521 393.643 264.63 392.89 264.283L381.99 259.265L387.008 248.365C387.355 247.612 387.026 246.721 386.273 246.375C385.521 246.028 384.63 246.357 384.283 247.11L378.637 259.373ZM628.48 166.593L379.48 258.593L380.52 261.407L629.52 169.407L628.48 166.593Z" fill="black" fill-opacity="0.28"/>
</svg>
