<svg width="783" height="168" viewBox="0 0 783 168" fill="none" xmlns="http://www.w3.org/2000/svg">
<rect width="171" height="168" fill="#D9D9D9"/>
<rect x="67" y="65" width="37" height="37" fill="#00B327"/>
<rect x="184" width="171" height="168" fill="#D9D9D9"/>
<rect x="251" y="65" width="37" height="37" fill="#B30000"/>
<path d="M306.97 82.9097C306.368 83.4786 306.341 84.428 306.91 85.0301L316.181 94.8426C316.75 95.4447 317.7 95.4716 318.302 94.9027C318.904 94.3337 318.931 93.3843 318.362 92.7822L310.12 84.06L318.843 75.8184C319.445 75.2495 319.472 74.3001 318.903 73.698C318.334 73.0958 317.384 73.0689 316.782 73.6379L306.97 82.9097ZM525.955 88.6747L308.042 82.5005L307.957 85.4993L525.87 91.6735L525.955 88.6747Z" fill="black"/>
<path d="M555.105 101.42C553.355 101.42 552.095 100.988 551.325 100.125C550.555 99.2617 550.17 98.165 550.17 96.835C550.17 96.4617 550.193 96.1 550.24 95.75C550.31 95.3767 550.38 95.0033 550.45 94.63L551.955 87.385H549.645L550.345 83.85L552.9 83.64L554.37 79.09H558.395L557.52 83.64H561.475L560.74 87.385H556.68L555.175 94.84C555.152 95.05 555.128 95.2483 555.105 95.435C555.105 95.6217 555.105 95.8083 555.105 95.995C555.105 97.115 555.7 97.675 556.89 97.675C557.147 97.675 557.392 97.64 557.625 97.57C557.858 97.4767 558.092 97.3833 558.325 97.29L559.165 100.65C558.722 100.813 558.15 100.977 557.45 101.14C556.773 101.327 555.992 101.42 555.105 101.42ZM566.492 101.42C564.976 101.42 563.774 100.872 562.887 99.775C562.024 98.6783 561.592 97.1033 561.592 95.05C561.592 93.3933 561.849 91.8533 562.362 90.43C562.876 88.9833 563.564 87.7233 564.427 86.65C565.314 85.5767 566.306 84.7367 567.402 84.13C568.522 83.5233 569.677 83.22 570.867 83.22C571.661 83.22 572.407 83.43 573.107 83.85C573.807 84.2467 574.321 84.795 574.647 85.495H574.717L575.487 83.64H579.302L575.837 101H571.952L572.022 98.725H571.917C571.124 99.5417 570.249 100.195 569.292 100.685C568.336 101.175 567.402 101.42 566.492 101.42ZM568.592 97.5C569.176 97.5 569.794 97.325 570.447 96.975C571.124 96.6017 571.742 95.925 572.302 94.945L573.527 88.785C573.247 88.2017 572.886 87.7817 572.442 87.525C572.022 87.2683 571.614 87.14 571.217 87.14C570.424 87.14 569.666 87.4667 568.942 88.12C568.242 88.75 567.671 89.6133 567.227 90.71C566.784 91.8067 566.562 93.055 566.562 94.455C566.562 95.505 566.737 96.275 567.087 96.765C567.461 97.255 567.962 97.5 568.592 97.5ZM579.114 107.44L583.909 83.64H587.794L587.829 85.635H587.934C588.727 84.9117 589.579 84.3283 590.489 83.885C591.422 83.4417 592.332 83.22 593.219 83.22C594.759 83.22 595.96 83.7683 596.824 84.865C597.687 85.9617 598.119 87.5367 598.119 89.59C598.119 91.2467 597.862 92.7983 597.349 94.245C596.835 95.6683 596.147 96.9167 595.284 97.99C594.42 99.0633 593.429 99.9033 592.309 100.51C591.212 101.117 590.069 101.42 588.879 101.42C588.155 101.42 587.479 101.245 586.849 100.895C586.242 100.522 585.74 100.008 585.344 99.355H585.274L584.784 102.75L583.909 107.44H579.114ZM588.529 97.5C589.345 97.5 590.104 97.185 590.804 96.555C591.504 95.9017 592.075 95.0267 592.519 93.93C592.962 92.8333 593.184 91.585 593.184 90.185C593.184 89.135 592.997 88.365 592.624 87.875C592.25 87.385 591.76 87.14 591.154 87.14C590.617 87.14 590.01 87.3033 589.334 87.63C588.68 87.9333 588.097 88.4933 587.584 89.31L586.254 95.89C586.51 96.45 586.837 96.8583 587.234 97.115C587.654 97.3717 588.085 97.5 588.529 97.5ZM606.961 101L610.461 83.64H614.346L614.276 85.95H614.416C615.256 85.2033 616.155 84.5617 617.111 84.025C618.068 83.4883 619.095 83.22 620.191 83.22C621.638 83.22 622.688 83.605 623.341 84.375C623.995 85.1217 624.321 86.2183 624.321 87.665C624.321 88.0617 624.298 88.47 624.251 88.89C624.205 89.2867 624.135 89.7067 624.041 90.15L621.871 101H617.076L619.141 90.745C619.211 90.395 619.27 90.0917 619.316 89.835C619.386 89.5783 619.421 89.3333 619.421 89.1C619.421 87.91 618.826 87.315 617.636 87.315C617.1 87.315 616.54 87.5017 615.956 87.875C615.396 88.225 614.743 88.785 613.996 89.555L611.756 101H606.961ZM633.653 101.42C631.623 101.42 629.989 100.767 628.753 99.46C627.539 98.1533 626.933 96.4267 626.933 94.28C626.933 92.6 627.213 91.0833 627.773 89.73C628.333 88.3767 629.079 87.21 630.013 86.23C630.946 85.25 631.984 84.5033 633.128 83.99C634.294 83.4767 635.473 83.22 636.663 83.22C638.016 83.22 639.194 83.5233 640.198 84.13C641.201 84.7133 641.983 85.5417 642.543 86.615C643.103 87.665 643.383 88.9133 643.383 90.36C643.383 92.04 643.103 93.5567 642.543 94.91C641.983 96.2633 641.236 97.43 640.303 98.41C639.369 99.39 638.319 100.137 637.153 100.65C636.009 101.163 634.843 101.42 633.653 101.42ZM634.178 97.57C634.971 97.57 635.694 97.2667 636.348 96.66C637.001 96.03 637.526 95.1783 637.923 94.105C638.343 93.0317 638.553 91.8183 638.553 90.465C638.553 89.3917 638.343 88.5633 637.923 87.98C637.526 87.3733 636.919 87.07 636.103 87.07C635.333 87.07 634.609 87.385 633.933 88.015C633.279 88.6217 632.754 89.4617 632.358 90.535C631.961 91.6083 631.763 92.8217 631.763 94.175C631.763 95.225 631.961 96.0533 632.358 96.66C632.778 97.2667 633.384 97.57 634.178 97.57ZM647.458 101L646.618 83.64H651.343L651.378 92.04C651.355 92.88 651.32 93.7317 651.273 94.595C651.25 95.435 651.215 96.2867 651.168 97.15H651.308C651.635 96.2867 651.95 95.4233 652.253 94.56C652.556 93.6967 652.895 92.8567 653.268 92.04L656.838 83.64H661.003L661.283 92.04C661.306 92.88 661.306 93.7317 661.283 94.595C661.283 95.435 661.283 96.2867 661.283 97.15H661.423C661.75 96.2867 662.053 95.435 662.333 94.595C662.613 93.7317 662.916 92.88 663.243 92.04L666.498 83.64H670.943L663.523 101H657.888L657.748 93.72C657.771 92.9033 657.783 92.0867 657.783 91.27C657.783 90.43 657.795 89.555 657.818 88.645H657.678C657.351 89.555 657.048 90.43 656.768 91.27C656.488 92.0867 656.185 92.9033 655.858 93.72L652.883 101H647.458ZM674.405 93.09L676.68 77.55H681.475L680.46 81.96L677.555 93.09H674.405ZM674.44 101.42C673.693 101.42 673.086 101.187 672.62 100.72C672.176 100.23 671.955 99.6 671.955 98.83C671.955 98.2467 672.095 97.6867 672.375 97.15C672.678 96.6133 673.086 96.17 673.6 95.82C674.113 95.47 674.708 95.295 675.385 95.295C676.131 95.295 676.726 95.5517 677.17 96.065C677.636 96.555 677.87 97.1733 677.87 97.92C677.87 98.5033 677.718 99.0633 677.415 99.6C677.135 100.137 676.738 100.58 676.225 100.93C675.711 101.257 675.116 101.42 674.44 101.42Z" fill="black"/>
</svg>
