<svg width="42" height="42" viewBox="0 0 42 42" fill="none" xmlns="http://www.w3.org/2000/svg">
<path d="M41.8334 16.8333V33.4999H37.6667V16.8333H41.8334ZM37.6667 37.6666V41.8333H41.8334V37.6666H37.6667ZM33.5001 32.0208C30.4376 35.4791 25.9792 37.6666 21.0001 37.6666C11.8126 37.6666 4.33341 30.1874 4.33341 20.9999C4.33341 11.8125 11.8126 4.33329 21.0001 4.33329V23.0833L36.7292 7.35412C32.9167 2.95829 27.2917 0.166626 21.0001 0.166626C9.50007 0.166626 0.166748 9.49995 0.166748 20.9999C0.166748 32.4999 9.50007 41.8333 21.0001 41.8333C25.6876 41.8333 30.0209 40.2916 33.5001 37.6666V32.0208Z" fill="black"/>
</svg>
