<svg width="51" height="41" viewBox="0 0 51 41" fill="none" xmlns="http://www.w3.org/2000/svg">
<path d="M45.9622 12.3132L42.8822 16.9492C44.3675 19.9139 45.0947 23.2011 44.9986 26.5162C44.9024 29.8313 43.986 33.0707 42.3313 35.9442H7.62472C5.47413 32.2107 4.583 27.8829 5.08343 23.6026C5.58385 19.3224 7.4492 15.3174 10.4029 12.1815C13.3567 9.04552 17.2416 6.94558 21.4816 6.19293C25.7217 5.44028 30.0913 6.07499 33.9426 8.00298L38.5751 4.92067C33.8587 1.89403 28.2642 0.537785 22.6865 1.06887C17.1088 1.59996 11.8702 3.9877 7.80875 7.85015C3.74725 11.7126 1.09748 16.8266 0.283297 22.3741C-0.530891 27.9216 0.537544 33.5821 3.3177 38.4502C3.75469 39.2077 4.38215 39.8375 5.13774 40.2772C5.89333 40.7168 6.75072 40.9509 7.62472 40.9561H42.3062C43.1887 40.9596 44.0565 40.7297 44.8216 40.2897C45.5867 39.8496 46.2221 39.215 46.6633 38.4502C48.9705 34.4505 50.1284 29.8906 50.0091 25.2738C49.8898 20.6571 48.4979 16.1631 45.9872 12.2881L45.9622 12.3132ZM21.4472 29.4539C21.9124 29.9198 22.4647 30.2895 23.0727 30.5417C23.6807 30.794 24.3324 30.9238 24.9905 30.9238C25.6487 30.9238 26.3004 30.794 26.9083 30.5417C27.5163 30.2895 28.0687 29.9198 28.5338 29.4539L42.7069 8.17839L21.4472 22.362C20.9816 22.8275 20.6122 23.3803 20.3602 23.9887C20.1081 24.5971 19.9784 25.2493 19.9784 25.9079C19.9784 26.5666 20.1081 27.2188 20.3602 27.8272C20.6122 28.4356 20.9816 28.9884 21.4472 29.4539Z" fill="black"/>
</svg>
